<?xml version="1.0" encoding="utf-8"?>
<!-- Generator: Adobe Illustrator 27.0.0, SVG Export Plug-In . SVG Version: 6.00 Build 0)  -->
<svg version="1.1" id="Layer_1" xmlns="http://www.w3.org/2000/svg" xmlns:xlink="http://www.w3.org/1999/xlink" x="0px" y="0px"
	 viewBox="0 0 751.66 887.49" style="enable-background:new 0 0 751.66 887.49;" xml:space="preserve">
<style type="text/css">
	.st0{opacity:0;}
	.st1{fill:none;stroke:#000000;stroke-linecap:round;stroke-linejoin:round;stroke-miterlimit:10;}
	.st2{fill:none;stroke:#000000;stroke-width:8;stroke-linecap:round;stroke-linejoin:round;stroke-miterlimit:10;}
</style>
<g>
	<g class="st0">
		<rect x="-113.64" y="-64.57" class="st1" width="998" height="1000"/>
	</g>
	<g>
		<polygon class="st2" points="12.25,156.65 283.36,9.98 741.14,247.76 470.03,395.54 		"/>
	</g>
	<g>
		<polygon class="st2" points="468.92,334.43 631.14,248.87 283.36,69.98 123.36,154.43 		"/>
	</g>
	<g>
		<polyline class="st2" points="283.36,237.77 283.36,127.76 177.76,182.76 		"/>
	</g>
	<g>
		<polyline class="st2" points="12.25,156.65 12.25,637.76 472.25,877.76 741.14,732.2 		"/>
	</g>
	<g>
		<line class="st2" x1="230.56" y1="210.27" x2="230.56" y2="155.26"/>
	</g>
	<g>
		<polyline class="st2" points="339.96,389.72 339.96,464.95 691.4,642.38 691.4,340.09 525.76,429.59 528.18,559.98 		"/>
	</g>
	<g>
		<polyline class="st2" points="230.56,332.15 230.56,457.53 61.28,544.34 61.28,243.06 412.25,427.76 412.25,501.45 		"/>
	</g>
	<g>
		<polyline class="st2" points="12.25,637.76 283.36,489.98 741.14,732.2 741.14,247.76 		"/>
	</g>
	<g>
		<line class="st2" x1="470.03" y1="395.54" x2="470.03" y2="530.62"/>
	</g>
	<g>
		<line class="st2" x1="117.89" y1="272.86" x2="117.89" y2="515.31"/>
	</g>
	<g>
		<line class="st2" x1="283.36" y1="489.98" x2="283.36" y2="359.93"/>
	</g>
	<g>
		<line class="st2" x1="635.76" y1="370.16" x2="635.76" y2="614.29"/>
	</g>
	<g>
		<g>
			<g>
				<line class="st2" x1="283.36" y1="127.76" x2="574.38" y2="278.8"/>
			</g>
		</g>
	</g>
	<g>
		<line class="st2" x1="339.96" y1="267.25" x2="339.96" y2="157.13"/>
	</g>
	<g>
		<polyline class="st2" points="470.03,819.06 631.14,732.2 283.36,550.47 123.36,634.21 470.03,819.06 		"/>
	</g>
	<g>
		<polyline class="st2" points="578.55,704.72 524.29,730.23 470.03,755.74 173.84,607.79 		"/>
	</g>
	<g>
		<line class="st2" x1="524.29" y1="676.37" x2="524.29" y2="730.23"/>
	</g>
	<g>
		<line class="st2" x1="412.25" y1="617.82" x2="412.25" y2="726.88"/>
	</g>
	<g>
		<line class="st2" x1="470.03" y1="648.01" x2="470.03" y2="755.74"/>
	</g>
</g>
</svg>
