<?xml version="1.0" standalone="no"?>
<!DOCTYPE svg PUBLIC "-//W3C//DTD SVG 20010904//EN"
 "http://www.w3.org/TR/2001/REC-SVG-20010904/DTD/svg10.dtd">
<svg version="1.0" xmlns="http://www.w3.org/2000/svg"
 width="4000.000000pt" height="1199.000000pt" viewBox="0 0 4000.000000 1199.000000"
 preserveAspectRatio="xMidYMid meet">

<g transform="translate(0.000000,1199.000000) scale(0.100000,-0.100000)"
fill="#000000" stroke="none">
<path d="M3030 11034 c-118 -64 -352 -190 -520 -282 -168 -91 -762 -411 -1320
-712 -920 -496 -1099 -598 -1069 -608 13 -5 12 -5452 -1 -5452 -31 0 54 -57
190 -128 85 -44 308 -160 495 -257 187 -98 554 -289 815 -425 261 -136 680
-354 930 -485 250 -131 619 -323 820 -427 201 -105 410 -214 465 -243 55 -29
262 -137 460 -240 198 -103 401 -209 450 -235 429 -225 635 -330 653 -330 11
0 199 97 419 216 719 391 1468 796 2068 1119 325 175 596 325 603 333 9 13 12
583 12 2777 0 2618 -1 2763 -17 2777 -10 8 -108 61 -218 118 -110 57 -240 124
-290 150 -49 26 -148 78 -220 115 -71 37 -179 93 -240 125 -60 32 -949 493
-1975 1025 -1026 532 -1914 993 -1975 1025 -153 80 -310 160 -316 160 -2 0
-101 -52 -219 -116z m2030 -921 c982 -509 1830 -949 1885 -978 55 -29 156 -82
225 -117 69 -36 182 -95 253 -132 70 -36 182 -95 250 -130 67 -35 199 -103
292 -151 94 -49 219 -114 279 -146 l108 -57 -43 -25 c-48 -27 -157 -86 -829
-452 -245 -133 -645 -352 -890 -485 -245 -134 -618 -337 -830 -452 l-385 -209
-65 31 c-36 18 -177 91 -315 162 -277 145 -947 494 -1500 783 -198 103 -407
212 -465 242 -58 31 -269 141 -470 246 -201 104 -410 213 -465 242 -55 29
-257 135 -450 235 -192 100 -415 217 -495 258 -80 42 -300 157 -490 257 -384
200 -387 202 -380 208 3 3 397 216 875 474 479 259 958 518 1065 576 107 58
382 207 610 331 229 125 422 223 430 220 8 -3 818 -422 1800 -931z m-4807
-767 c12 -8 191 -102 397 -209 206 -107 422 -219 480 -250 58 -30 267 -139
465 -242 198 -103 563 -294 810 -423 248 -129 614 -320 815 -424 201 -105 408
-213 460 -240 52 -28 259 -136 460 -241 201 -104 399 -207 440 -229 41 -22
219 -114 395 -205 176 -92 328 -173 338 -181 16 -14 17 -61 17 -724 0 -389 -3
-708 -7 -708 -5 1 -132 63 -283 139 l-275 139 -3 416 -2 416 -38 23 c-20 13
-138 77 -262 142 -124 65 -299 157 -390 205 -91 48 -262 138 -380 200 -118 62
-298 157 -400 210 -102 54 -277 146 -390 205 -113 59 -284 149 -380 200 -96
51 -224 118 -285 150 -60 32 -184 97 -275 145 -91 48 -262 138 -380 200 -118
62 -294 154 -390 205 -391 206 -448 235 -463 235 -9 0 -23 -10 -31 -22 -14
-20 -16 -201 -16 -1735 0 -1700 0 -1713 20 -1733 11 -11 24 -20 30 -20 5 0 83
38 172 84 240 123 484 248 1163 596 336 172 616 319 623 328 9 12 12 166 12
689 0 394 4 673 9 673 8 0 303 -152 454 -234 l47 -26 0 -709 0 -709 -67 -37
c-75 -42 -756 -413 -1358 -740 -214 -116 -460 -250 -545 -297 -85 -47 -294
-161 -465 -253 -170 -93 -361 -197 -423 -232 -63 -35 -118 -63 -123 -63 -5 0
-9 1037 -9 2650 0 1458 2 2650 5 2650 3 0 16 -6 28 -14z m890 -1158 l187 -99
-2 -1347 -3 -1347 -70 -38 c-138 -76 -475 -243 -480 -239 -7 7 -6 3247 1 3254
6 6 39 -11 367 -184z m7267 -2533 c0 -2402 -2 -2665 -16 -2665 -8 0 -119 56
-247 124 -271 144 -691 367 -862 456 -66 35 -176 93 -245 130 -69 37 -188 100
-265 140 -77 40 -192 101 -255 135 -63 34 -173 93 -245 130 -71 37 -233 123
-360 190 -321 170 -711 377 -1040 550 -154 81 -383 203 -510 270 -126 67 -365
193 -530 280 -165 87 -352 186 -415 219 l-115 61 -3 688 c-1 378 -1 687 1 687
1 0 92 -47 202 -105 110 -58 233 -122 273 -142 l72 -37 0 -421 c0 -231 4 -425
8 -431 7 -11 273 -147 1467 -749 801 -404 1550 -782 2092 -1056 249 -126 460
-229 471 -229 10 0 23 5 30 12 9 9 12 412 12 1750 l0 1738 -24 12 c-23 10 -72
-15 -518 -255 -1137 -613 -1381 -745 -1405 -763 l-25 -19 11 -555 c6 -305 13
-624 16 -707 4 -120 2 -153 -7 -153 -7 1 -134 62 -283 138 l-270 137 0 745 0
744 375 204 c351 191 617 336 1735 945 248 135 540 295 650 355 110 61 206
111 213 111 9 1 12 -538 12 -2664z m-6805 2291 c94 -49 235 -124 315 -166 80
-43 195 -103 255 -135 61 -31 183 -96 273 -143 l162 -87 -2 -683 -3 -684 -325
-167 c-179 -92 -445 -228 -592 -304 l-268 -137 0 1301 c0 715 3 1299 8 1297 4
-1 84 -43 177 -92z m6235 -2311 c0 -899 -3 -1635 -7 -1635 -5 1 -125 61 -268
134 l-260 134 -3 1360 -2 1360 257 140 c142 77 264 140 271 141 9 1 12 -332
12 -1634z m-630 -10 c0 -718 -3 -1305 -6 -1305 -4 0 -258 127 -564 282 l-558
282 -6 101 c-12 230 -25 1320 -16 1329 15 15 1123 614 1138 615 9 1 12 -266
12 -1304z m-3136 1021 c67 -35 184 -96 261 -137 77 -40 183 -96 235 -124 l95
-50 3 -368 c1 -241 -1 -368 -8 -365 -5 1 -169 84 -365 183 l-355 180 0 373 c0
204 3 372 7 372 3 0 61 -29 127 -64z m-688 -1114 c540 -286 691 -366 929 -492
255 -135 422 -223 1025 -542 140 -75 305 -161 365 -193 61 -32 175 -92 255
-135 80 -42 195 -103 255 -135 61 -32 214 -113 340 -180 127 -67 361 -191 520
-275 160 -84 389 -206 510 -270 121 -64 343 -181 493 -261 261 -138 272 -145
251 -159 -13 -8 -498 -272 -1078 -585 -581 -314 -1092 -591 -1136 -615 -44
-24 -224 -122 -399 -216 l-319 -173 -166 86 c-91 47 -193 100 -226 118 -33 18
-276 145 -540 283 -584 304 -1117 581 -1285 670 -69 36 -330 172 -580 302
-736 383 -1148 599 -1255 655 -55 29 -271 141 -480 250 -405 210 -589 306
-592 309 -3 3 167 97 677 374 217 118 591 322 830 452 239 130 644 351 900
490 256 139 488 266 515 281 28 16 53 29 56 29 3 0 64 -31 135 -68z"/>
<path d="M2995 10337 c-137 -73 -356 -189 -485 -256 -129 -68 -350 -185 -490
-259 -140 -74 -331 -175 -425 -225 -184 -97 -205 -111 -205 -137 0 -28 -79 16
745 -412 275 -143 550 -286 610 -318 61 -32 164 -86 230 -120 349 -182 848
-442 975 -508 80 -41 181 -94 225 -117 44 -23 328 -171 632 -329 l552 -287 53
27 c29 15 152 79 273 144 121 64 321 170 445 235 124 65 295 155 380 200 85
45 205 108 265 140 329 172 464 247 469 261 9 24 -9 47 -56 72 -62 32 -463
238 -733 377 -126 65 -297 152 -380 195 -142 73 -293 151 -695 358 -96 49
-335 172 -530 272 -195 100 -422 217 -505 260 -82 42 -253 130 -380 195 -126
65 -284 146 -350 180 -168 87 -362 185 -366 185 -2 0 -116 -60 -254 -133z
m689 -188 c237 -122 499 -257 581 -299 83 -43 314 -162 515 -265 417 -214 647
-332 875 -450 259 -133 486 -250 895 -460 488 -250 541 -278 537 -288 -4 -13
-509 -276 -529 -277 -10 0 -748 379 -1640 842 -892 463 -1633 846 -1648 851
-22 8 -70 -14 -390 -181 -413 -214 -593 -308 -730 -381 l-95 -50 -195 101
c-266 137 -323 169 -313 178 4 4 112 61 238 128 127 66 343 179 480 252 138
73 351 186 475 251 124 65 288 152 365 193 77 41 142 75 144 76 2 0 198 -100
435 -221z m-474 -1010 c0 -359 -3 -539 -10 -539 -6 0 -92 43 -193 95 -100 53
-210 110 -244 128 l-63 31 0 287 0 288 108 55 c59 30 170 88 247 129 77 40
143 71 148 69 4 -2 7 -246 7 -543z m568 303 l72 -36 0 -573 c0 -315 -2 -573
-4 -573 -3 0 -125 63 -273 139 l-268 140 -3 576 -2 576 202 -106 c112 -58 236
-122 276 -143z m-1168 -303 c0 -185 -3 -230 -13 -227 -21 5 -437 222 -437 228
0 3 60 37 133 75 72 38 168 88 212 112 44 23 86 42 93 43 9 0 12 -53 12 -231z
m2465 -370 c616 -319 1177 -610 1248 -647 70 -36 127 -69 127 -72 0 -4 -46
-31 -102 -60 -129 -66 -374 -196 -720 -379 l-267 -142 -518 270 c-285 148
-567 295 -628 326 -60 32 -147 77 -192 102 l-83 44 0 570 c0 313 4 569 8 569
4 0 512 -261 1127 -581z"/>
<path d="M3130 4954 c-58 -31 -208 -110 -335 -176 -126 -66 -275 -144 -330
-173 -55 -29 -210 -110 -345 -181 -540 -281 -688 -360 -710 -375 -39 -26 -21
-60 52 -99 35 -18 259 -137 498 -265 239 -128 644 -344 900 -480 688 -367
1309 -698 1810 -965 764 -408 693 -373 732 -356 87 38 1832 986 1840 1000 17
30 -12 54 -154 129 -79 41 -186 97 -238 124 -52 28 -201 106 -330 173 -129 67
-284 148 -345 180 -60 32 -263 138 -450 235 -354 185 -771 403 -1338 699 -182
95 -489 255 -682 356 -192 100 -369 193 -392 206 -23 13 -50 24 -60 24 -10 0
-65 -25 -123 -56z m423 -196 c161 -83 346 -180 412 -215 66 -34 252 -131 413
-215 l292 -152 0 -568 c0 -312 -3 -568 -7 -567 -5 0 -581 287 -1282 638
l-1274 638 189 98 c104 54 254 133 334 175 80 42 219 116 310 163 91 47 194
102 230 121 36 19 71 35 78 36 8 0 145 -68 305 -152z m137 -1333 c918 -459
1678 -835 1688 -835 10 0 22 4 27 9 6 5 217 106 470 224 253 118 517 243 588
276 70 34 132 61 138 61 6 0 90 -41 187 -92 294 -152 315 -165 300 -174 -7 -5
-395 -215 -863 -467 l-850 -459 -110 57 c-60 32 -306 162 -545 290 -239 128
-644 344 -900 480 -256 136 -661 352 -900 480 -239 128 -491 262 -560 298
-390 205 -812 435 -812 443 0 9 440 243 460 244 6 0 764 -376 1682 -835z
m1360 552 l275 -143 3 -557 c2 -479 0 -557 -12 -557 -8 0 -136 61 -285 136
l-271 135 0 565 c0 310 3 564 8 564 4 0 131 -65 282 -143z m878 -460 c9 -7 12
-73 10 -288 l-3 -279 -235 -111 c-129 -61 -245 -115 -257 -120 l-23 -9 0 536
0 535 248 -127 c136 -70 253 -131 260 -137z m386 -202 l189 -98 -69 -32 c-38
-18 -123 -58 -189 -90 -123 -59 -203 -95 -211 -95 -7 0 -5 446 2 453 4 3 25
-4 48 -17 22 -13 126 -67 230 -121z"/>
<path d="M34530 6360 l0 -1370 85 0 85 0 0 1370 0 1370 -85 0 -85 0 0 -1370z"/>
<path d="M35464 7711 c-82 -50 -84 -191 -2 -241 71 -43 174 -15 204 55 29 70
8 150 -48 185 -42 26 -113 26 -154 1z"/>
<path d="M9450 6290 l0 -1302 483 5 c436 4 493 6 593 25 241 46 447 135 606
263 300 241 448 650 410 1132 -22 277 -88 484 -215 672 -52 77 -195 220 -268
267 -152 100 -342 173 -548 210 -103 18 -167 21 -588 25 l-473 5 0 -1302z
m985 1141 c395 -63 656 -234 809 -531 52 -100 90 -217 113 -344 24 -130 24
-430 0 -551 -84 -424 -316 -689 -709 -809 -170 -53 -226 -58 -640 -63 l-388
-5 0 1162 0 1162 373 -5 c204 -3 404 -10 442 -16z"/>
<path d="M23830 6290 l0 -1300 85 0 85 0 0 1300 0 1300 -85 0 -85 0 0 -1300z"/>
<path d="M27210 6291 l0 -1301 85 0 85 0 0 555 0 555 283 0 282 -1 333 -554
333 -555 101 0 100 0 -14 23 c-15 22 -433 709 -584 958 l-82 137 93 21 c163
38 314 126 406 236 181 219 208 595 62 868 -15 28 -59 83 -98 122 -109 109
-218 165 -400 206 -93 21 -130 22 -542 26 l-443 4 0 -1300z m981 1121 c288
-78 419 -256 419 -566 0 -125 -17 -211 -56 -289 -63 -125 -151 -206 -278 -257
-136 -55 -184 -60 -557 -60 l-339 0 0 601 0 601 368 -4 c333 -4 374 -7 443
-26z"/>
<path d="M36460 7255 l0 -255 -150 0 -150 0 0 -75 0 -75 150 0 150 0 0 -692
c0 -684 4 -776 35 -884 21 -73 85 -163 144 -203 86 -58 159 -73 384 -78 l197
-5 0 76 0 76 -155 0 c-156 0 -235 10 -290 37 -51 25 -94 74 -118 132 l-22 56
-3 743 -3 742 296 0 295 0 0 75 0 75 -295 0 -295 0 0 255 0 255 -85 0 -85 0 0
-255z"/>
<path d="M12948 7029 c-259 -38 -441 -156 -536 -348 l-42 -83 0 201 0 201 -85
0 -85 0 0 -1005 0 -1005 85 0 84 0 3 673 c4 744 1 713 72 862 47 101 106 169
193 226 108 70 209 101 356 107 l117 4 0 89 0 89 -52 -1 c-29 -1 -79 -5 -110
-10z"/>
<path d="M19490 7031 c-247 -36 -458 -189 -554 -402 l-25 -54 0 213 -1 212
-85 0 -85 0 0 -1005 0 -1005 85 0 85 0 0 588 c0 645 5 711 59 868 70 204 203
344 392 410 100 36 290 45 403 19 180 -40 311 -143 390 -307 81 -170 79 -146
83 -905 l4 -673 79 0 78 0 5 618 c4 584 5 622 26 713 65 297 229 486 477 549
156 40 357 21 501 -46 90 -42 190 -148 242 -256 82 -170 83 -183 88 -925 l5
-653 79 0 79 0 0 598 c0 618 -6 755 -40 888 -93 365 -396 582 -785 561 -352
-18 -596 -203 -700 -532 -4 -14 -14 1 -38 61 -97 239 -244 375 -477 441 -94
27 -272 38 -370 24z"/>
<path d="M25525 7031 c-268 -44 -466 -177 -570 -385 l-35 -69 0 212 0 211 -80
0 -80 0 0 -1005 0 -1005 80 0 80 0 0 578 c0 337 4 613 10 662 40 327 196 542
454 626 66 22 106 28 212 32 162 5 256 -12 370 -68 158 -77 262 -216 316 -420
21 -83 22 -100 25 -747 l4 -663 80 0 79 0 0 633 c0 675 -5 754 -51 897 -106
323 -360 505 -719 515 -69 2 -147 0 -175 -4z"/>
<path d="M14396 7019 c-425 -46 -732 -320 -827 -736 -29 -130 -36 -331 -15
-473 69 -466 350 -761 798 -836 184 -31 419 -5 585 65 155 64 316 197 392 325
33 54 91 198 105 259 l7 28 -87 -3 -86 -3 -27 -80 c-84 -251 -313 -423 -602
-452 -96 -10 -277 1 -354 21 -107 29 -235 99 -315 173 -150 138 -231 317 -255
556 l-7 67 871 0 871 0 0 148 c-1 169 -15 261 -60 385 -59 162 -198 335 -333
415 -191 114 -435 166 -661 141z m329 -159 c211 -48 390 -187 479 -373 50
-104 71 -189 82 -324 l7 -93 -793 0 -792 0 7 68 c23 236 130 453 284 575 82
66 201 123 309 148 111 27 298 26 417 -1z"/>
<path d="M16856 7018 c-568 -55 -917 -539 -846 -1173 52 -454 326 -772 741
-862 129 -28 344 -23 471 10 247 65 441 215 553 427 l44 85 1 -257 0 -258 85
0 85 0 0 1005 0 1005 -85 0 -85 0 0 -257 0 -258 -33 65 c-45 89 -86 147 -154
216 -186 189 -473 282 -777 252z m379 -173 c223 -65 394 -212 494 -426 53
-112 80 -227 88 -369 28 -531 -294 -914 -787 -937 -430 -20 -746 224 -836 646
-48 228 -19 501 76 696 109 226 314 372 585 416 95 15 282 3 380 -26z"/>
<path d="M30180 7019 c-234 -27 -436 -124 -586 -281 -175 -182 -264 -431 -264
-732 1 -190 25 -324 87 -476 117 -285 351 -476 673 -548 117 -26 357 -23 480
7 299 74 508 248 613 512 14 36 29 84 33 107 l7 42 -85 0 -85 0 -17 -61 c-64
-230 -253 -400 -512 -460 -81 -19 -114 -21 -246 -17 -168 6 -235 21 -358 83
-240 121 -389 357 -416 662 l-7 73 869 2 869 3 -1 170 c0 142 -4 184 -23 254
-100 379 -388 618 -796 661 -103 11 -130 11 -235 -1z m353 -164 c34 -9 105
-37 157 -63 131 -64 239 -170 298 -293 55 -113 72 -183 79 -316 l6 -113 -788
0 -788 0 6 73 c19 218 128 444 273 562 197 160 488 218 757 150z"/>
<path d="M32637 7019 c-281 -28 -528 -174 -678 -401 -108 -164 -158 -334 -166
-563 -13 -392 115 -706 367 -900 304 -234 764 -258 1101 -58 126 75 254 217
319 354 l30 64 0 -262 0 -263 85 0 85 0 0 1005 0 1005 -85 0 -85 0 0 -262 0
-263 -29 62 c-160 338 -523 523 -944 482z m371 -169 c299 -84 511 -317 576
-630 96 -469 -104 -902 -484 -1049 -217 -84 -484 -79 -685 13 -178 81 -322
241 -392 435 -46 126 -57 196 -57 381 0 152 3 187 23 265 89 344 312 550 656
606 84 13 281 2 363 -21z"/>
<path d="M35460 5995 l0 -1005 80 0 80 0 0 1005 0 1005 -80 0 -80 0 0 -1005z"/>
<path d="M37578 6983 c26 -50 832 -1981 832 -1994 0 -8 -81 -218 -180 -467
-99 -250 -180 -458 -180 -463 0 -5 37 -9 83 -9 l82 0 580 1466 c319 806 582
1470 583 1475 2 5 -34 9 -81 9 l-85 0 -25 -62 c-13 -35 -170 -441 -347 -903
-178 -462 -326 -843 -329 -847 -3 -4 -175 402 -381 902 l-375 910 -93 0 c-85
0 -92 -1 -84 -17z"/>
</g>
</svg>
